<?xml version="1.0" encoding="UTF-8" standalone="no"?>
<svg
   xmlns:dc="http://purl.org/dc/elements/1.1/"
   xmlns:cc="http://creativecommons.org/ns#"
   xmlns:rdf="http://www.w3.org/1999/02/22-rdf-syntax-ns#"
   xmlns:svg="http://www.w3.org/2000/svg"
   xmlns="http://www.w3.org/2000/svg"
   xml:space="preserve"
   style="enable-background:new 0 0 578.1 145.8;"
   viewBox="0 0 578.1 145.8"
   y="0px"
   x="0px"
   id="Layer_1"
   version="1.1"><metadata
   id="metadata912"><rdf:RDF><cc:Work
       rdf:about=""><dc:format>image/svg+xml</dc:format><dc:type
         rdf:resource="http://purl.org/dc/dcmitype/StillImage" /><dc:title></dc:title></cc:Work></rdf:RDF></metadata><defs
   id="defs910" />
<style
   id="style901"
   type="text/css">
	.st0{fill:#FFFFFF;}
	.st1{font-family:'Raleway-Medium';}
	.st2{font-size:65.2866px;}
	.st3{font-family:'DroidSansArabic';}
</style>
<g
   style="fill:#1a1a1a"
   id="XMLID_71_">

	<path
   style="fill:#1dd1a1;fill-opacity:1"
   d="m 59.192998,144.3 c -1,0 -2.7,-0.3 -5.1,-1 -2.4,-0.5 -3.6,-1.1 -3.8,-2 v -0.1 -1.9 c 0,-7.6 6.3,-24.8 18.8,-51.2 -3,0.4 -5.5,0.6 -7.2,0.6 -1.8,0 -3.4,-0.6 -4.8,-1.7 -1.3,-1.4 -1.9,-3 -1.9,-5 0,-2.1 1.6,-3.9 4.8,-5.5 3.1,-1.6 5.4,-2.4 7.1,-2.4 1.9,0 3.4,0.9 4.7,2.5 1.4,1.7 1.8,1.9 1.8,1.9 h 0.3 c 2.9,-5.8 5.6,-11.3 8,-16.2 2.4,-4.9 3.6,-8.1 3.6,-9.4 0,-1.5 -0.2,-2.6 -0.6,-3.3 l -0.1,-0.2 v -0.2 c 0.9,-4.6 4.4,-10.5 10.6,-17.6 C 101.793,24.5 107.693,20.9 112.893,20.9 c 2.4,0 5.3,1 8.6,3.1 3.5,2 5,4.6 4.5,8 l -0.1,0.8 -0.6,-0.5 c -0.9,-0.7 -1.8,-1.1 -2.5,-1.1 -9.4,0 -22.7,15.8 -39.300002,46.8 4.4,-0.5 9.1,-1.1 13.9,-2 C 114.793,73.6 124.293,72.5 126.693,72.5 c 2.3,0 3.7,0.1 4.3,0.2 0.8,0 1.4,0.2 1.9,0.6 0.6,0.3 1,0.7 1.2,1.1 v 0.1 0.1 c 0.2,1.2 -1.4,2.4 -5.2,3.8 -8.3,2.9 -25.2,6 -50.300002,8.9 -11.9,23.5 -17.9,38 -17.9,43.4 0,2.8 1.1,2.8 1.5,2.8 v 0 c 0.3,0 0.6,-0.1 0.9,-0.2 2,-0.7 3.8,-2.2 5.4,-4.3 5.1,-7.3 6.9,-8.1 7.9,-8.1 v 0 c 0.2,0 0.7,0.1 0.9,0.6 0.1,0.3 0.2,0.7 0.2,1.2 0,1.1 -1,2.7 -3.1,5 l -2.1,3.5 c -3.9,6.5 -6.8,10.3 -8.7,11.4 -1.7,1.2 -3.2,1.7 -4.4,1.7 z m -16.3,-31.8 c -0.2,-0.3 -0.1,-0.5 0.5,-2.5 1.3,-4.1 4.4,-13.6 3.4,-22.1 -0.6,-4.8 -2.8,-9.7 -6.7,-15 -0.5,-0.7 -1,-1.3 -1.4,-1.8 -0.8,-1 -1.2,-1.6 -1.4,-1.9 -4.8,-1.6 -9,-4.5 -12.4,-8.7 -3.3,-4.4 -5,-8.1 -5,-11.1 0,-3 0.3,-5.5 1.1,-7.6 0,-1.7 0.1,-2.9 0.2,-3.7 2.2,-11.2 8.8,-20 19.7,-26.1 13,-7.3 29.2,-11 47.9,-11 10.3,0 23.100002,1.3 38.100002,4 14.8,2.6 26,4.1 33.4,4.4 4.2,-5 8.2,-7.5 12,-7.5 1.8,0 3.3,0.5 4.4,1.5 1.1,1 1.6,2.1 1.6,3.1 0,1 -0.5,2.1 -1.4,3.1 -0.9,1 -2.5,2.5 -5,4.5 -2.4,1.9 -4.3,3.6 -5.7,5.1 -6.8,7.2 -10.2,13.5 -10.2,18.7 0,2.3 0.4,4.2 1.2,5.6 0.7,1 0.9,1.9 0.7,2.6 -0.2,0.5 -0.5,0.9 -1.1,1.1 -0.3,0.1 -0.5,0.1 -0.8,0.1 -1,0 -2,-0.6 -2.9,-1.9 -1.4,-1.1 -2.1,-4.2 -2.1,-9.7 0,-7.1 1.2,-13.1 3.5,-17.8 0.3,-0.5 0.7,-1.3 1.3,-2.3 0.4,-0.8 0.9,-1.4 1.2,-1.9 h -7.2 c -4.3,0 -13,-0.6 -26,-1.9 -12.8,-1.2 -22.6,-1.9 -29.200002,-1.9 -6.5,0 -11.6,0.5 -15.1,1.4 -13.5,2 -25.3,6.2 -35.1,12.4 -9.6,6 -15.4,13.7 -17.2,22.9 -0.3,0.9 -0.4,2.1 -0.4,3.4 0,1.2 0.3,2.7 1,4.5 0.8,1.8 1.8,3.2 2.9,4.3 1.1,1.1 2.8,2.4 5.1,3.9 1,0.6 3.5,1.6 5.9,2.6 6.7,2.8 7.7,3.4 7.6,4.1 -0.1,0.5 -0.8,0.5 -1,0.5 -1,0 -3.1,-0.3 -6.5,-1 0,0 0.1,0.1 0.1,0.1 2.5,3 9,11 10,19.3 1.3,11.3 -6.3,22.6 -8.3,24 l -0.1,0.1 h -0.2 -0.3 z"
   class="st0"
   id="XMLID_82_" />

<g
   id="text916"
   style="font-style:normal;font-weight:normal;font-size:60.31063461px;line-height:1.25;font-family:sans-serif;letter-spacing:0px;word-spacing:0px;fill:#333333;fill-opacity:1;stroke:none;stroke-width:1.50776589"
   transform="scale(0.96597788,1.0352204)"
   aria-label="Flex Courses"><path
     id="path948"
     style="font-style:normal;font-variant:normal;font-weight:600;font-stretch:normal;font-family:Raleway;-inkscape-font-specification:'Raleway Semi-Bold';fill:#333333;stroke-width:1.50776589"
     d="M 204.94178,127.93655 V 85.115996 h 28.52693 v 5.970753 H 211.69657 V 103.8726 h 18.21381 v 5.60889 h -18.21381 v 18.45506 z" /><path
     id="path950"
     style="font-style:normal;font-variant:normal;font-weight:600;font-stretch:normal;font-family:Raleway;-inkscape-font-specification:'Raleway Semi-Bold';fill:#333333;stroke-width:1.50776589"
     d="m 239.02483,83.909783 h 6.63416 v 34.919857 q 0,1.74901 0.90466,2.77429 0.90466,0.96497 2.53305,0.96497 0.66342,0 1.50777,-0.24124 0.90466,-0.24125 1.68869,-0.5428 l 0.96497,5.18672 q -1.44745,0.66341 -3.4377,1.02528 -1.99025,0.42217 -3.55833,0.42217 -3.4377,0 -5.36765,-1.86963 -1.86962,-1.86963 -1.86962,-5.30733 z" /><path
     id="path952"
     style="font-style:normal;font-variant:normal;font-weight:600;font-stretch:normal;font-family:Raleway;-inkscape-font-specification:'Raleway Semi-Bold';fill:#333333;stroke-width:1.50776589"
     d="m 271.39844,128.53965 q -3.67895,0 -6.69448,-1.26652 -3.01553,-1.32683 -5.18671,-3.55833 -2.11087,-2.23149 -3.31709,-5.18671 -1.1459,-2.95522 -1.1459,-6.27231 0,-3.31708 1.1459,-6.2723 1.20622,-3.01554 3.31709,-5.24703 2.17118,-2.291804 5.18671,-3.558327 3.01553,-1.326834 6.75479,-1.326834 3.67895,0 6.63417,1.326834 3.01554,1.326834 5.12641,3.558327 2.11087,2.17118 3.19646,5.1264 1.1459,2.89491 1.1459,6.09138 0,0.72373 -0.0603,1.38714 -0.0603,0.60311 -0.12062,1.02528 h -25.27015 q 0.18093,2.11088 0.96497,3.79957 0.84434,1.6887 2.11087,2.95522 1.32683,1.20622 2.95522,1.86963 1.6887,0.66342 3.49802,0.66342 1.32683,0 2.59335,-0.30155 1.32684,-0.36187 2.41243,-0.96497 1.08559,-0.66342 1.92994,-1.56808 0.84435,-0.90466 1.32683,-1.99025 l 5.6692,1.62839 q -1.62838,3.55833 -5.42795,5.85013 -3.73926,2.23149 -8.74505,2.23149 z m 9.58939,-18.7566 q -0.18093,-1.99026 -1.02528,-3.67895 -0.78403,-1.6887 -2.05056,-2.8346 -1.26652,-1.20622 -2.95522,-1.86963 -1.6887,-0.66342 -3.55833,-0.66342 -1.86963,0 -3.55832,0.66342 -1.62839,0.66341 -2.89491,1.86963 -1.26653,1.1459 -2.05057,2.8346 -0.78403,1.68869 -0.96497,3.67895 z" /><path
     id="path954"
     style="font-style:normal;font-variant:normal;font-weight:600;font-stretch:normal;font-family:Raleway;-inkscape-font-specification:'Raleway Semi-Bold';fill:#333333;stroke-width:1.50776589"
     d="m 295.35213,96.394084 7.71976,10.795606 0.5428,1.02528 0.54279,-1.02528 7.65945,-10.795606 h 6.93573 l -11.51933,15.801386 11.63995,15.74108 h -6.93573 l -7.78007,-10.7353 -0.54279,-0.96497 -0.5428,0.96497 -7.78007,10.7353 h -6.93572 l 11.63995,-15.74108 -11.51933,-15.801386 z" /><path
     id="path956"
     style="font-style:normal;font-variant:normal;font-weight:600;font-stretch:normal;font-family:Raleway;-inkscape-font-specification:'Raleway Semi-Bold';fill:#333333;stroke-width:1.50776589"
     d="m 336.2776,106.22472 q 0,-3.85988 1.38715,-7.659453 1.38714,-3.85988 4.04081,-6.875412 2.71398,-3.075842 6.57386,-4.945472 3.85988,-1.86963 8.74504,-1.86963 5.85013,0 10.01157,2.593358 4.16143,2.593357 6.2723,6.754791 l -5.30733,3.558327 q -0.90466,-1.92994 -2.17118,-3.256774 -1.26653,-1.326834 -2.77429,-2.110872 -1.50777,-0.784039 -3.13616,-1.085592 -1.62838,-0.361864 -3.13615,-0.361864 -3.37739,0 -5.91044,1.387145 -2.53305,1.326834 -4.28206,3.558327 -1.68869,2.231494 -2.59335,5.005781 -0.84435,2.77429 -0.84435,5.54858 0,3.13615 1.02528,5.97075 1.02528,2.8346 2.8346,5.00579 1.86963,2.17118 4.40267,3.49801 2.53305,1.26653 5.54858,1.26653 1.56808,0 3.19647,-0.36187 1.68869,-0.42217 3.19646,-1.26652 1.56808,-0.90466 2.8346,-2.23149 1.32683,-1.32684 2.17118,-3.19647 l 5.60889,3.19647 q -1.02528,2.41242 -2.89491,4.28205 -1.86963,1.80932 -4.22174,3.07584 -2.35212,1.26653 -5.00579,1.92994 -2.59335,0.66342 -5.1264,0.66342 -4.5233,0 -8.26256,-1.92994 -3.73926,-1.92994 -6.45323,-5.00578 -2.71398,-3.13616 -4.22175,-7.05635 -1.50777,-3.9805 -1.50777,-8.08162 z" /><path
     id="path958"
     style="font-style:normal;font-variant:normal;font-weight:600;font-stretch:normal;font-family:Raleway;-inkscape-font-specification:'Raleway Semi-Bold';fill:#333333;stroke-width:1.50776589"
     d="m 393.54822,128.53965 q -3.73926,0 -6.7548,-1.32683 -2.95522,-1.32684 -5.06609,-3.55833 -2.11087,-2.23149 -3.25677,-5.18671 -1.14591,-3.01554 -1.14591,-6.27231 0,-3.25677 1.14591,-6.21199 1.1459,-3.01554 3.25677,-5.24703 2.17118,-2.231493 5.1264,-3.558327 3.01554,-1.326834 6.69449,-1.326834 3.67894,0 6.63417,1.326834 3.01553,1.326834 5.1264,3.558327 2.17118,2.23149 3.31708,5.24703 1.14591,2.95522 1.14591,6.21199 0,3.25677 -1.14591,6.27231 -1.1459,2.95522 -3.31708,5.18671 -2.11087,2.23149 -5.1264,3.55833 -2.95523,1.32683 -6.63417,1.32683 z m -9.40846,-16.28387 q 0,2.29181 0.72372,4.22175 0.72373,1.92994 1.99025,3.37739 1.26653,1.38715 2.95523,2.23149 1.749,0.78404 3.73926,0.78404 1.99025,0 3.67894,-0.78404 1.74901,-0.84434 3.01554,-2.2918 1.26652,-1.44745 1.99025,-3.37739 0.72372,-1.92995 0.72372,-4.22175 0,-2.23149 -0.72372,-4.16143 -0.72373,-1.99025 -1.99025,-3.43771 -1.26653,-1.44745 -3.01554,-2.23149 -1.68869,-0.84435 -3.67894,-0.84435 -1.92994,0 -3.67895,0.84435 -1.6887,0.84435 -2.95522,2.2918 -1.26653,1.44746 -2.05057,3.43771 -0.72372,1.92994 -0.72372,4.16143 z" /><path
     id="path960"
     style="font-style:normal;font-variant:normal;font-weight:600;font-stretch:normal;font-family:Raleway;-inkscape-font-specification:'Raleway Semi-Bold';fill:#333333;stroke-width:1.50776589"
     d="m 425.36584,128.53965 q -4.94547,0 -7.47852,-3.19646 -2.53305,-3.25678 -2.53305,-9.6497 V 96.394084 h 6.63417 v 17.972566 q 0,8.5038 6.03107,8.5038 2.8346,0 5.36764,-1.74901 2.53305,-1.749 3.92019,-5.06609 V 96.394084 h 6.63417 v 23.702076 q 0,1.14591 0.36187,1.62839 0.42217,0.48249 1.44745,0.5428 v 5.6692 q -1.02528,0.18093 -1.6887,0.24124 -0.66341,0.0603 -1.26652,0.0603 -1.80932,0 -3.07584,-0.96497 -1.26652,-1.02528 -1.32684,-2.59336 l -0.12062,-3.13615 q -2.11087,3.43771 -5.48826,5.24702 -3.3774,1.74901 -7.41821,1.74901 z" /><path
     id="path962"
     style="font-style:normal;font-variant:normal;font-weight:600;font-stretch:normal;font-family:Raleway;-inkscape-font-specification:'Raleway Semi-Bold';fill:#333333;stroke-width:1.50776589"
     d="m 470.13895,102.12359 q -3.85988,0.12063 -6.87541,1.80932 -2.95522,1.62839 -4.22174,4.70423 v 19.29941 h -6.63417 V 96.394084 h 6.15168 v 7.056346 q 1.62839,-3.25678 4.22175,-5.186716 2.65366,-1.990251 5.66919,-2.171183 0.60311,0 0.96497,0 0.42218,0 0.72373,0.06031 z" /><path
     id="path964"
     style="font-style:normal;font-variant:normal;font-weight:600;font-stretch:normal;font-family:Raleway;-inkscape-font-specification:'Raleway Semi-Bold';fill:#333333;stroke-width:1.50776589"
     d="m 486.36535,128.53965 q -3.79957,0 -7.59914,-1.20621 -3.73926,-1.26652 -6.45324,-3.55833 l 2.65367,-4.22174 q 2.8346,2.05056 5.60889,3.13615 2.77429,1.02528 5.6692,1.02528 2.95522,0 4.64392,-1.1459 1.74901,-1.1459 1.74901,-3.25677 0,-1.99026 -1.92994,-2.89491 -1.92995,-0.90466 -6.03107,-1.99026 -2.95522,-0.78403 -5.06609,-1.50776 -2.11087,-0.72373 -3.43771,-1.6887 -1.32683,-0.96497 -1.92994,-2.23149 -0.6031,-1.26653 -0.6031,-3.07585 0,-2.41242 0.90466,-4.28205 0.96497,-1.86963 2.59335,-3.136153 1.6887,-1.326834 3.92019,-1.990251 2.2315,-0.663417 4.82485,-0.663417 3.55833,0 6.63417,1.085591 3.07585,1.085592 5.48827,3.13615 l -2.8346,3.98051 q -4.40267,-3.49802 -9.34815,-3.49802 -2.53304,0 -4.28205,1.08559 -1.6887,1.02528 -1.6887,3.31708 0,0.96497 0.36186,1.62839 0.36187,0.66342 1.14591,1.1459 0.84435,0.48249 2.11087,0.90466 1.32683,0.36187 3.25677,0.84435 3.19647,0.78404 5.48827,1.56808 2.35212,0.78404 3.85988,1.86963 1.50777,1.02528 2.2315,2.47273 0.72372,1.38715 0.72372,3.3774 0,4.5233 -3.4377,7.17697 -3.3774,2.59335 -9.22753,2.59335 z" /><path
     id="path966"
     style="font-style:normal;font-variant:normal;font-weight:600;font-stretch:normal;font-family:Raleway;-inkscape-font-specification:'Raleway Semi-Bold';fill:#333333;stroke-width:1.50776589"
     d="m 519.11966,128.53965 q -3.67895,0 -6.69448,-1.26652 -3.01553,-1.32683 -5.18672,-3.55833 -2.11087,-2.23149 -3.31708,-5.18671 -1.1459,-2.95522 -1.1459,-6.27231 0,-3.31708 1.1459,-6.2723 1.20621,-3.01554 3.31708,-5.24703 2.17119,-2.291804 5.18672,-3.558327 3.01553,-1.326834 6.75479,-1.326834 3.67895,0 6.63417,1.326834 3.01553,1.326834 5.1264,3.558327 2.11087,2.17118 3.19647,5.1264 1.1459,2.89491 1.1459,6.09138 0,0.72373 -0.0603,1.38714 -0.0603,0.60311 -0.12062,1.02528 h -25.27016 q 0.18093,2.11088 0.96497,3.79957 0.84435,1.6887 2.11087,2.95522 1.32684,1.20622 2.95522,1.86963 1.6887,0.66342 3.49802,0.66342 1.32683,0 2.59336,-0.30155 1.32683,-0.36187 2.41242,-0.96497 1.08559,-0.66342 1.92994,-1.56808 0.84435,-0.90466 1.32684,-1.99025 l 5.6692,1.62839 q -1.62839,3.55833 -5.42796,5.85013 -3.73926,2.23149 -8.74504,2.23149 z m 9.58939,-18.7566 q -0.18093,-1.99026 -1.02528,-3.67895 -0.78404,-1.6887 -2.05056,-2.8346 -1.26653,-1.20622 -2.95522,-1.86963 -1.6887,-0.66342 -3.55833,-0.66342 -1.86963,0 -3.55833,0.66342 -1.62839,0.66341 -2.89491,1.86963 -1.26652,1.1459 -2.05056,2.8346 -0.78404,1.68869 -0.96497,3.67895 z" /><path
     id="path968"
     style="font-style:normal;font-variant:normal;font-weight:600;font-stretch:normal;font-family:Raleway;-inkscape-font-specification:'Raleway Semi-Bold';fill:#333333;stroke-width:1.50776589"
     d="m 552.2123,128.53965 q -3.79957,0 -7.59914,-1.20621 -3.73926,-1.26652 -6.45323,-3.55833 l 2.65366,-4.22174 q 2.8346,2.05056 5.60889,3.13615 2.77429,1.02528 5.6692,1.02528 2.95522,0 4.64392,-1.1459 1.74901,-1.1459 1.74901,-3.25677 0,-1.99026 -1.92994,-2.89491 -1.92994,-0.90466 -6.03106,-1.99026 -2.95523,-0.78403 -5.0661,-1.50776 -2.11087,-0.72373 -3.4377,-1.6887 -1.32684,-0.96497 -1.92994,-2.23149 -0.60311,-1.26653 -0.60311,-3.07585 0,-2.41242 0.90466,-4.28205 0.96497,-1.86963 2.59336,-3.136153 1.68869,-1.326834 3.92019,-1.990251 2.23149,-0.663417 4.82485,-0.663417 3.55833,0 6.63417,1.085591 3.07584,1.085592 5.48827,3.13615 l -2.8346,3.98051 q -4.40268,-3.49802 -9.34815,-3.49802 -2.53305,0 -4.28206,1.08559 -1.68869,1.02528 -1.68869,3.31708 0,0.96497 0.36186,1.62839 0.36186,0.66342 1.1459,1.1459 0.84435,0.48249 2.11087,0.90466 1.32684,0.36187 3.25678,0.84435 3.19646,0.78404 5.48827,1.56808 2.35211,0.78404 3.85988,1.86963 1.50776,1.02528 2.23149,2.47273 0.72373,1.38715 0.72373,3.3774 0,4.5233 -3.43771,7.17697 -3.37739,2.59335 -9.22753,2.59335 z" /></g>
<text
   id="text920"
   y="29.970081"
   x="291.82394"
   style="font-style:normal;font-weight:normal;font-size:40px;line-height:1.25;font-family:sans-serif;letter-spacing:0px;word-spacing:0px;fill:#000000;fill-opacity:1;stroke:none"
   xml:space="preserve"><tspan
     y="29.970081"
     x="291.82394"
     id="tspan918"> </tspan></text>

<g
   id="text916-3"
   style="font-style:normal;font-weight:normal;font-size:62.77708817px;line-height:1.25;font-family:sans-serif;letter-spacing:0px;word-spacing:0px;fill:#333333;fill-opacity:1;stroke:none;stroke-width:1.56942725"
   aria-label="فلكس كورسز"><path
     id="path929"
     style="font-style:normal;font-variant:normal;font-weight:normal;font-stretch:normal;font-family:'Droid Sans Arabic';-inkscape-font-specification:'Droid Sans Arabic';fill:#333333;stroke-width:1.56942725"
     d="m 534.15474,16.241244 q 3.27986,0 3.27986,3.525081 0,3.494427 -3.27986,3.494427 -3.2492,0 -3.2492,-3.494427 0,-3.525081 3.2492,-3.525081 z M 512.3912,54.587991 h 9.83957 q -3.2492,-3.647692 -3.2492,-9.471739 0,-7.326037 4.62858,-11.678745 4.62859,-4.383361 12.56768,-4.383361 h 8.21497 v 30.438305 h -32.0016 z m 23.97055,-20.660038 q -5.57883,0 -8.70542,2.942676 -3.09594,2.942676 -3.09594,8.184318 0,9.533044 8.58281,9.533044 h 5.916 V 33.927953 Z" /><path
     id="path931"
     style="font-style:normal;font-variant:normal;font-weight:normal;font-stretch:normal;font-family:'Droid Sans Arabic';-inkscape-font-specification:'Droid Sans Arabic';fill:#333333;stroke-width:1.56942725"
     d="m 490.9342,54.587991 h 8.5828 V 11.796577 h 5.57883 v 36.78345 q 0,2.758759 1.68591,4.383361 1.71656,1.624603 4.53662,1.624603 h 2.26831 v 4.90446 h -1.44068 q -5.24164,0 -7.05016,-3.586387 v 3.586387 H 490.9342 Z" /><path
     id="path933"
     style="font-style:normal;font-variant:normal;font-weight:normal;font-stretch:normal;font-family:'Droid Sans Arabic';-inkscape-font-specification:'Droid Sans Arabic';fill:#333333;stroke-width:1.56942725"
     d="m 484.92623,48.580027 q 0,2.758759 1.71656,4.383361 1.71656,1.624603 4.50597,1.624603 h 1.01155 v 4.90446 h -0.18392 q -5.30295,0 -7.05016,-3.586387 v 3.586387 h -29.54937 v -4.90446 h 24.21577 V 43.031857 q 0,-9.103904 -11.55614,-9.103904 h -8.15366 v -5.11903 q 2.97333,-6.345145 9.07325,-11.985274 6.13058,-5.670782 13.02747,-8.429541 l 1.99244,4.781848 q -6.03862,2.45223 -11.34156,6.896897 -5.2723,4.444667 -7.54061,8.981293 h 2.94267 q 8.03106,0 12.44507,3.341163 4.44467,3.341164 4.44467,9.716962 z" /><path
     id="path935"
     style="font-style:normal;font-variant:normal;font-weight:normal;font-stretch:normal;font-family:'Droid Sans Arabic';-inkscape-font-specification:'Droid Sans Arabic';fill:#333333;stroke-width:1.56942725"
     d="m 397.04444,74.573665 q -5.73209,0 -9.19586,-4.291402 -3.43312,-4.26075 -3.43312,-11.801357 0,-8.398888 2.57484,-14.805339 h 5.21099 q -2.14571,5.732088 -2.14571,14.805339 0,5.3336 2.14571,8.245623 2.1457,2.942676 6.03861,2.942676 h 3.06529 q 10.54459,0 10.54459,-9.992837 V 33.927953 h 5.3336 v 13.701835 q 0,3.065288 1.90048,5.027072 1.93113,1.931131 4.93511,1.931131 h 3.89292 V 33.927953 h 5.3336 v 13.701835 q 0,3.065288 1.90047,5.027072 1.93113,1.931131 4.96577,1.931131 h 3.89291 V 29.054146 h 5.3336 v 19.1887 q 0,2.912023 1.68591,4.628584 1.71656,1.716561 4.53663,1.716561 h 0.98089 v 4.90446 h -0.18392 q -5.27229,0 -7.01951,-3.586387 v 3.586387 h -9.04259 q -5.24164,0 -7.05016,-3.586387 v 3.586387 h -9.01195 q -5.24164,0 -7.05016,-3.586387 v 3.341164 q 0,15.326437 -15.63297,15.326437 z" /><path
     id="path937"
     style="font-style:normal;font-variant:normal;font-weight:normal;font-stretch:normal;font-family:'Droid Sans Arabic';-inkscape-font-specification:'Droid Sans Arabic';fill:#333333;stroke-width:1.56942725"
     d="m 329.087,59.492451 v -4.90446 h 24.21577 V 43.031857 q 0,-9.103904 -11.55613,-9.103904 h -8.15367 v -5.11903 q 2.97333,-6.345145 9.07325,-11.985274 6.13058,-5.670782 13.02748,-8.429541 l 1.99243,4.781848 q -6.03861,2.45223 -11.34156,6.896897 -5.2723,4.444667 -7.54061,8.981293 h 2.94268 q 8.03105,0 12.44507,3.341163 4.44466,3.341164 4.44466,9.716962 v 17.38018 z" /><path
     id="path939"
     style="font-style:normal;font-variant:normal;font-weight:normal;font-stretch:normal;font-family:'Droid Sans Arabic';-inkscape-font-specification:'Droid Sans Arabic';fill:#333333;stroke-width:1.56942725"
     d="m 324.85692,54.587991 h 5.48686 v 4.90446 h -5.48686 v 1.501991 q 0,6.40645 -3.80096,9.992837 -3.80096,3.586386 -10.69785,3.586386 -6.28384,0 -11.28026,-3.218552 l 2.51354,-4.199444 q 4.8738,2.513536 8.88933,2.513536 4.19944,0 6.65167,-2.268313 2.45223,-2.237659 2.45223,-6.099922 v -1.808519 h -6.13057 q -6.68233,0 -10.36067,-3.678345 -3.6477,-3.708998 -3.6477,-10.636548 0,-7.479301 4.72055,-11.801357 4.72054,-4.322055 12.47572,-4.322055 h 8.21497 z m -8.03106,-20.660038 q -5.64012,0 -8.73607,2.973329 -3.06528,2.973329 -3.06528,8.21497 0,9.471739 8.61346,9.471739 h 5.88535 V 33.927953 Z" /><path
     id="path941"
     style="font-style:normal;font-variant:normal;font-weight:normal;font-stretch:normal;font-family:'Droid Sans Arabic';-inkscape-font-specification:'Droid Sans Arabic';fill:#333333;stroke-width:1.56942725"
     d="m 290.21916,29.054146 v 31.940296 q 0,6.345145 -2.91202,9.962184 -2.91203,3.617039 -8.27628,3.617039 -4.84315,0 -8.5215,-3.034634 l 2.51354,-3.83161 q 2.63614,1.961784 5.88535,1.961784 2.75876,0 4.38336,-2.298965 1.65526,-2.298966 1.65526,-6.06927 V 29.054146 Z" /><path
     id="path943"
     style="font-style:normal;font-variant:normal;font-weight:normal;font-stretch:normal;font-family:'Droid Sans Arabic';-inkscape-font-specification:'Droid Sans Arabic';fill:#333333;stroke-width:1.56942725"
     d="m 222.53762,59.492451 v -4.90446 h 9.28782 V 33.927953 h 5.3336 v 13.701835 q 0,3.065288 1.90048,5.027072 1.93113,1.931131 4.93511,1.931131 h 3.89292 V 33.927953 h 5.3336 v 13.701835 q 0,3.065288 1.90048,5.027072 1.93113,1.931131 4.93511,1.931131 h 3.89291 V 29.054146 h 5.3336 v 30.438305 h -9.04259 q -5.2723,0 -7.01951,-3.586387 v 3.586387 h -9.0426 q -5.2723,0 -7.01951,-3.586387 v 3.586387 z" /><path
     id="path945"
     style="font-style:normal;font-variant:normal;font-weight:normal;font-stretch:normal;font-family:'Droid Sans Arabic';-inkscape-font-specification:'Droid Sans Arabic';fill:#333333;stroke-width:1.56942725"
     d="m 216.52965,60.994442 q 0,6.345145 -2.91202,9.962184 -2.91202,3.617039 -8.27628,3.617039 -4.84315,0 -8.5215,-3.034634 l 2.51354,-3.83161 q 2.63615,1.961784 5.88535,1.961784 2.75876,0 4.38336,-2.298965 1.65526,-2.298966 1.65526,-6.06927 V 29.054146 h 5.27229 v 19.525881 q 0,2.758759 1.71656,4.383361 1.71656,1.624603 4.50598,1.624603 h 0.98089 v 4.90446 h -0.18392 q -5.27229,0 -7.01951,-3.586387 z m -2.75876,-44.753198 q 3.24921,0 3.24921,3.525081 0,3.494427 -3.24921,3.494427 -3.2492,0 -3.2492,-3.494427 0,-3.525081 3.2492,-3.525081 z" /></g>
</g>
</svg>
